<svg xmlns="http://www.w3.org/2000/svg" version="1.1" xmlns:xlink="http://www.w3.org/1999/xlink" xmlns:svgjs="http://svgjs.dev/svgjs" viewBox="0 0 800 800" opacity="0.68" width="800" height="800"><g stroke-width="3.5" stroke="#6f4518" fill="none"><line x1="0" y1="0" x2="88.88888888888889" y2="88.88888888888889"></line><line x1="88.88888888888889" y1="0" x2="177.77777777777777" y2="88.88888888888889"></line><line x1="177.77777777777777" y1="0" x2="266.66666666666663" y2="88.88888888888889"></line><line x1="266.66666666666663" y1="0" x2="355.55555555555554" y2="88.88888888888889"></line><line x1="355.55555555555554" y1="0" x2="444.44444444444446" y2="88.88888888888889"></line><line x1="444.44444444444446" y1="0" x2="533.3333333333334" y2="88.88888888888889"></line><line x1="533.3333333333334" y1="0" x2="622.2222222222223" y2="88.88888888888889"></line><line x1="622.2222222222223" y1="0" x2="711.1111111111112" y2="88.88888888888889"></line><line x1="711.1111111111112" y1="0" x2="800.0000000000001" y2="88.88888888888889"></line><line x1="800.0000000000001" y1="0" x2="888.888888888889" y2="88.88888888888889"></line><line x1="0" y1="88.88888888888889" x2="88.88888888888889" y2="177.77777777777777"></line><line x1="88.88888888888889" y1="88.88888888888889" x2="177.77777777777777" y2="177.77777777777777"></line><line x1="177.77777777777777" y1="88.88888888888889" x2="266.66666666666663" y2="177.77777777777777"></line><line x1="266.66666666666663" y1="88.88888888888889" x2="355.55555555555554" y2="177.77777777777777"></line><line x1="355.55555555555554" y1="88.88888888888889" x2="444.44444444444446" y2="177.77777777777777"></line><line x1="444.44444444444446" y1="88.88888888888889" x2="533.3333333333334" y2="177.77777777777777"></line><line x1="533.3333333333334" y1="88.88888888888889" x2="622.2222222222223" y2="177.77777777777777"></line><line x1="622.2222222222223" y1="88.88888888888889" x2="711.1111111111112" y2="177.77777777777777"></line><line x1="711.1111111111112" y1="88.88888888888889" x2="800.0000000000001" y2="177.77777777777777"></line><line x1="800.0000000000001" y1="88.88888888888889" x2="888.888888888889" y2="177.77777777777777"></line><line x1="0" y1="177.77777777777777" x2="88.88888888888889" y2="266.66666666666663"></line><line x1="88.88888888888889" y1="177.77777777777777" x2="177.77777777777777" y2="266.66666666666663"></line><line x1="177.77777777777777" y1="177.77777777777777" x2="266.66666666666663" y2="266.66666666666663"></line><line x1="266.66666666666663" y1="177.77777777777777" x2="355.55555555555554" y2="266.66666666666663"></line><line x1="355.55555555555554" y1="177.77777777777777" x2="444.44444444444446" y2="266.66666666666663"></line><line x1="444.44444444444446" y1="177.77777777777777" x2="533.3333333333334" y2="266.66666666666663"></line><line x1="533.3333333333334" y1="177.77777777777777" x2="622.2222222222223" y2="266.66666666666663"></line><line x1="622.2222222222223" y1="177.77777777777777" x2="711.1111111111112" y2="266.66666666666663"></line><line x1="711.1111111111112" y1="177.77777777777777" x2="800.0000000000001" y2="266.66666666666663"></line><line x1="800.0000000000001" y1="177.77777777777777" x2="888.888888888889" y2="266.66666666666663"></line><line x1="0" y1="266.66666666666663" x2="88.88888888888889" y2="355.55555555555554"></line><line x1="88.88888888888889" y1="266.66666666666663" x2="177.77777777777777" y2="355.55555555555554"></line><line x1="177.77777777777777" y1="266.66666666666663" x2="266.66666666666663" y2="355.55555555555554"></line><line x1="266.66666666666663" y1="266.66666666666663" x2="355.55555555555554" y2="355.55555555555554"></line><line x1="355.55555555555554" y1="266.66666666666663" x2="444.44444444444446" y2="355.55555555555554"></line><line x1="444.44444444444446" y1="266.66666666666663" x2="533.3333333333334" y2="355.55555555555554"></line><line x1="533.3333333333334" y1="266.66666666666663" x2="622.2222222222223" y2="355.55555555555554"></line><line x1="622.2222222222223" y1="266.66666666666663" x2="711.1111111111112" y2="355.55555555555554"></line><line x1="711.1111111111112" y1="266.66666666666663" x2="800.0000000000001" y2="355.55555555555554"></line><line x1="800.0000000000001" y1="266.66666666666663" x2="888.888888888889" y2="355.55555555555554"></line><line x1="0" y1="355.55555555555554" x2="88.88888888888889" y2="444.44444444444446"></line><line x1="88.88888888888889" y1="355.55555555555554" x2="177.77777777777777" y2="444.44444444444446"></line><line x1="177.77777777777777" y1="355.55555555555554" x2="266.66666666666663" y2="444.44444444444446"></line><line x1="266.66666666666663" y1="355.55555555555554" x2="355.55555555555554" y2="444.44444444444446"></line><line x1="355.55555555555554" y1="355.55555555555554" x2="444.44444444444446" y2="444.44444444444446"></line><line x1="444.44444444444446" y1="355.55555555555554" x2="533.3333333333334" y2="444.44444444444446"></line><line x1="533.3333333333334" y1="355.55555555555554" x2="622.2222222222223" y2="444.44444444444446"></line><line x1="622.2222222222223" y1="355.55555555555554" x2="711.1111111111112" y2="444.44444444444446"></line><line x1="711.1111111111112" y1="355.55555555555554" x2="800.0000000000001" y2="444.44444444444446"></line><line x1="800.0000000000001" y1="355.55555555555554" x2="888.888888888889" y2="444.44444444444446"></line><line x1="0" y1="444.44444444444446" x2="88.88888888888889" y2="533.3333333333334"></line><line x1="88.88888888888889" y1="444.44444444444446" x2="177.77777777777777" y2="533.3333333333334"></line><line x1="177.77777777777777" y1="444.44444444444446" x2="266.66666666666663" y2="533.3333333333334"></line><line x1="266.66666666666663" y1="444.44444444444446" x2="355.55555555555554" y2="533.3333333333334"></line><line x1="355.55555555555554" y1="444.44444444444446" x2="444.44444444444446" y2="533.3333333333334"></line><line x1="444.44444444444446" y1="444.44444444444446" x2="533.3333333333334" y2="533.3333333333334"></line><line x1="533.3333333333334" y1="444.44444444444446" x2="622.2222222222223" y2="533.3333333333334"></line><line x1="622.2222222222223" y1="444.44444444444446" x2="711.1111111111112" y2="533.3333333333334"></line><line x1="711.1111111111112" y1="444.44444444444446" x2="800.0000000000001" y2="533.3333333333334"></line><line x1="800.0000000000001" y1="444.44444444444446" x2="888.888888888889" y2="533.3333333333334"></line><line x1="0" y1="533.3333333333334" x2="88.88888888888889" y2="622.2222222222223"></line><line x1="88.88888888888889" y1="533.3333333333334" x2="177.77777777777777" y2="622.2222222222223"></line><line x1="177.77777777777777" y1="533.3333333333334" x2="266.66666666666663" y2="622.2222222222223"></line><line x1="266.66666666666663" y1="533.3333333333334" x2="355.55555555555554" y2="622.2222222222223"></line><line x1="355.55555555555554" y1="533.3333333333334" x2="444.44444444444446" y2="622.2222222222223"></line><line x1="444.44444444444446" y1="533.3333333333334" x2="533.3333333333334" y2="622.2222222222223"></line><line x1="533.3333333333334" y1="533.3333333333334" x2="622.2222222222223" y2="622.2222222222223"></line><line x1="622.2222222222223" y1="533.3333333333334" x2="711.1111111111112" y2="622.2222222222223"></line><line x1="711.1111111111112" y1="533.3333333333334" x2="800.0000000000001" y2="622.2222222222223"></line><line x1="800.0000000000001" y1="533.3333333333334" x2="888.888888888889" y2="622.2222222222223"></line><line x1="0" y1="622.2222222222223" x2="88.88888888888889" y2="711.1111111111112"></line><line x1="88.88888888888889" y1="622.2222222222223" x2="177.77777777777777" y2="711.1111111111112"></line><line x1="177.77777777777777" y1="622.2222222222223" x2="266.66666666666663" y2="711.1111111111112"></line><line x1="266.66666666666663" y1="622.2222222222223" x2="355.55555555555554" y2="711.1111111111112"></line><line x1="355.55555555555554" y1="622.2222222222223" x2="444.44444444444446" y2="711.1111111111112"></line><line x1="444.44444444444446" y1="622.2222222222223" x2="533.3333333333334" y2="711.1111111111112"></line><line x1="533.3333333333334" y1="622.2222222222223" x2="622.2222222222223" y2="711.1111111111112"></line><line x1="622.2222222222223" y1="622.2222222222223" x2="711.1111111111112" y2="711.1111111111112"></line><line x1="711.1111111111112" y1="622.2222222222223" x2="800.0000000000001" y2="711.1111111111112"></line><line x1="800.0000000000001" y1="622.2222222222223" x2="888.888888888889" y2="711.1111111111112"></line><line x1="0" y1="711.1111111111112" x2="88.88888888888889" y2="800.0000000000001"></line><line x1="88.88888888888889" y1="711.1111111111112" x2="177.77777777777777" y2="800.0000000000001"></line><line x1="177.77777777777777" y1="711.1111111111112" x2="266.66666666666663" y2="800.0000000000001"></line><line x1="266.66666666666663" y1="711.1111111111112" x2="355.55555555555554" y2="800.0000000000001"></line><line x1="355.55555555555554" y1="711.1111111111112" x2="444.44444444444446" y2="800.0000000000001"></line><line x1="444.44444444444446" y1="711.1111111111112" x2="533.3333333333334" y2="800.0000000000001"></line><line x1="533.3333333333334" y1="711.1111111111112" x2="622.2222222222223" y2="800.0000000000001"></line><line x1="622.2222222222223" y1="711.1111111111112" x2="711.1111111111112" y2="800.0000000000001"></line><line x1="711.1111111111112" y1="711.1111111111112" x2="800.0000000000001" y2="800.0000000000001"></line><line x1="800.0000000000001" y1="711.1111111111112" x2="888.888888888889" y2="800.0000000000001"></line><line x1="0" y1="800.0000000000001" x2="88.88888888888889" y2="888.888888888889"></line><line x1="88.88888888888889" y1="800.0000000000001" x2="177.77777777777777" y2="888.888888888889"></line><line x1="177.77777777777777" y1="800.0000000000001" x2="266.66666666666663" y2="888.888888888889"></line><line x1="266.66666666666663" y1="800.0000000000001" x2="355.55555555555554" y2="888.888888888889"></line><line x1="355.55555555555554" y1="800.0000000000001" x2="444.44444444444446" y2="888.888888888889"></line><line x1="444.44444444444446" y1="800.0000000000001" x2="533.3333333333334" y2="888.888888888889"></line><line x1="533.3333333333334" y1="800.0000000000001" x2="622.2222222222223" y2="888.888888888889"></line><line x1="622.2222222222223" y1="800.0000000000001" x2="711.1111111111112" y2="888.888888888889"></line><line x1="711.1111111111112" y1="800.0000000000001" x2="800.0000000000001" y2="888.888888888889"></line><line x1="800.0000000000001" y1="800.0000000000001" x2="888.888888888889" y2="888.888888888889"></line></g></svg>