<svg xmlns="http://www.w3.org/2000/svg" version="1.1" xmlns:xlink="http://www.w3.org/1999/xlink" xmlns:svgjs="http://svgjs.dev/svgjs" viewBox="0 0 2400 800" opacity="0.67"><defs><linearGradient x1="50%" y1="0%" x2="50%" y2="100%" id="sssurf-grad"><stop stop-color="#6f4518ff" stop-opacity="1" offset="0%"></stop><stop stop-color="#f2d8bdff" stop-opacity="1" offset="100%"></stop></linearGradient></defs><g fill="url(#sssurf-grad)" transform="matrix(1,0,0,1,0,-380.53619384765625)"><path d="M 0 362.6569763580818 Q 480 450 480 316.7991049344248 Q 960 450 960 281.0723887483547 Q 1440 450 1440 300.12752175895497 Q 1920 450 1920 361.00211781771617 Q 2400 450 2400 318.0003275601364 L 2400 800 L 0 800 L 0 293.3194831352121 Z" transform="matrix(1,0,0,1,0,80)" opacity="0.05"></path><path d="M 0 362.6569763580818 Q 480 450 480 316.7991049344248 Q 960 450 960 281.0723887483547 Q 1440 450 1440 300.12752175895497 Q 1920 450 1920 361.00211781771617 Q 2400 450 2400 318.0003275601364 L 2400 800 L 0 800 L 0 293.3194831352121 Z" transform="matrix(1,0,0,1,0,160)" opacity="0.16"></path><path d="M 0 362.6569763580818 Q 480 450 480 316.7991049344248 Q 960 450 960 281.0723887483547 Q 1440 450 1440 300.12752175895497 Q 1920 450 1920 361.00211781771617 Q 2400 450 2400 318.0003275601364 L 2400 800 L 0 800 L 0 293.3194831352121 Z" transform="matrix(1,0,0,1,0,240)" opacity="0.26"></path><path d="M 0 362.6569763580818 Q 480 450 480 316.7991049344248 Q 960 450 960 281.0723887483547 Q 1440 450 1440 300.12752175895497 Q 1920 450 1920 361.00211781771617 Q 2400 450 2400 318.0003275601364 L 2400 800 L 0 800 L 0 293.3194831352121 Z" transform="matrix(1,0,0,1,0,320)" opacity="0.37"></path><path d="M 0 362.6569763580818 Q 480 450 480 316.7991049344248 Q 960 450 960 281.0723887483547 Q 1440 450 1440 300.12752175895497 Q 1920 450 1920 361.00211781771617 Q 2400 450 2400 318.0003275601364 L 2400 800 L 0 800 L 0 293.3194831352121 Z" transform="matrix(1,0,0,1,0,400)" opacity="0.47"></path><path d="M 0 362.6569763580818 Q 480 450 480 316.7991049344248 Q 960 450 960 281.0723887483547 Q 1440 450 1440 300.12752175895497 Q 1920 450 1920 361.00211781771617 Q 2400 450 2400 318.0003275601364 L 2400 800 L 0 800 L 0 293.3194831352121 Z" transform="matrix(1,0,0,1,0,480)" opacity="0.58"></path><path d="M 0 362.6569763580818 Q 480 450 480 316.7991049344248 Q 960 450 960 281.0723887483547 Q 1440 450 1440 300.12752175895497 Q 1920 450 1920 361.00211781771617 Q 2400 450 2400 318.0003275601364 L 2400 800 L 0 800 L 0 293.3194831352121 Z" transform="matrix(1,0,0,1,0,560)" opacity="0.68"></path><path d="M 0 362.6569763580818 Q 480 450 480 316.7991049344248 Q 960 450 960 281.0723887483547 Q 1440 450 1440 300.12752175895497 Q 1920 450 1920 361.00211781771617 Q 2400 450 2400 318.0003275601364 L 2400 800 L 0 800 L 0 293.3194831352121 Z" transform="matrix(1,0,0,1,0,640)" opacity="0.79"></path><path d="M 0 362.6569763580818 Q 480 450 480 316.7991049344248 Q 960 450 960 281.0723887483547 Q 1440 450 1440 300.12752175895497 Q 1920 450 1920 361.00211781771617 Q 2400 450 2400 318.0003275601364 L 2400 800 L 0 800 L 0 293.3194831352121 Z" transform="matrix(1,0,0,1,0,720)" opacity="0.89"></path><path d="M 0 362.6569763580818 Q 480 450 480 316.7991049344248 Q 960 450 960 281.0723887483547 Q 1440 450 1440 300.12752175895497 Q 1920 450 1920 361.00211781771617 Q 2400 450 2400 318.0003275601364 L 2400 800 L 0 800 L 0 293.3194831352121 Z" transform="matrix(1,0,0,1,0,800)" opacity="1.00"></path></g></svg>