<svg xmlns="http://www.w3.org/2000/svg" version="1.1" xmlns:xlink="http://www.w3.org/1999/xlink" xmlns:svgjs="http://svgjs.dev/svgjs" viewBox="0 0 800 800" opacity="1"><defs><linearGradient x1="50%" y1="0%" x2="50%" y2="100%" id="gggyrate-grad"><stop stop-color="hsl(28, 54%, 35%)" stop-opacity="1" offset="0%"></stop><stop stop-color="#f2d8bd" stop-opacity="1" offset="100%"></stop></linearGradient></defs><g stroke-width="6" stroke="url(#gggyrate-grad)" fill="none"><path d="M371.13255730949686 -16.346907348803143C388.9957497306575 -26.658368778729766 411.00431130449874 -26.658368778729766 428.8675037256594 -16.344020601482327L746.1325812717549 166.82875714575522C763.9957736929156 177.14021857568184 775.0000544798362 196.2014111349779 775.0000544798362 216.827220742152V583.1727762366271C775.0000544798362 603.7985858438012 763.9957736929156 622.8597784030973 746.1325812717549 633.1741265803446L428.8675037256594 816.3469043275823C411.00431130449874 826.6583657575088 388.9957497306575 826.6583657575088 371.13255730949686 816.3440175802614L53.86747976340132 633.1712398330238C36.00428734224067 622.8597784030973 25.000006555320113 603.7985858438012 25.000006555320113 583.1727762366271V216.827220742152C25.000006555320113 196.2014111349779 36.00428734224067 177.14021857568184 53.86747976340132 166.82587039843446L371.13255730949686 -16.346907348803143Z " transform="rotate(412.5, 400, 400)" opacity="1.00"></path><path d="M372.2872562378202 0.30695978987552053C389.43592096213433 -9.592043182854013 410.5641400730219 -9.592043182854013 427.71280479733605 0.30973106730351674L732.287279241588 176.15559770465154C749.4359439659021 186.05460067738113 760.0000535213459 204.35334553430528 760.0000535213459 224.15412275719245V575.8458560318886C760.0000535213459 595.6466332547758 749.4359439659021 613.9453781116999 732.287279241588 623.8471523618574L427.71280479733605 799.6930189992054C410.5641400730219 809.5920219719351 389.43592096213433 809.5920219719351 372.2872562378202 799.6902477217777L67.71278179356835 623.8443810844295C50.564117069254166 613.9453781116999 40.00000751381043 595.6466332547758 40.00000751381043 575.8458560318886V224.15412275719245C40.00000751381043 204.35334553430528 50.564117069254166 186.05460067738113 67.71278179356835 176.15282642722366L372.2872562378202 0.30695978987552053Z " transform="rotate(396, 400, 400)" opacity="0.96"></path><path d="M373.44195516614343 16.960826928554184C389.87609219361116 7.47428241302174 410.1239688415451 7.47428241302174 426.5581058690128 16.96348273608936L718.4419772114209 185.48243826354792C734.8761142388886 194.96898277908042 745.0000525628556 212.50527993363278 745.0000525628556 231.48102477223296V568.51893582715C745.0000525628556 587.4946806657503 734.8761142388886 605.0309778203026 718.4419772114209 614.5201781433702L426.5581058690128 783.0391336708287C410.1239688415451 792.5256781863613 389.87609219361116 792.5256781863613 373.44195516614343 783.0364778632938L81.55808382373544 614.5175223358351C65.12394679626766 605.0309778203026 55.00000847230075 587.4946806657503 55.00000847230075 568.51893582715V231.48102477223296C55.00000847230075 212.50527993363278 65.12394679626766 194.96898277908042 81.55808382373544 185.47978245601286L373.44195516614343 16.960826928554184Z " transform="rotate(379.5, 400, 400)" opacity="0.92"></path><path d="M374.59665409446666 33.61472458481103C390.316263425088 24.540638526475618 409.68379761006827 24.540638526475618 425.4034069406896 33.61726492245333L704.5966751812537 194.80930934002242C720.3162845118751 203.88339539835783 730.0000516043651 220.6572448505383 730.0000516043651 238.80795730485158V561.1920461399895C730.0000516043651 579.3427585943028 720.3162845118751 596.1166080464833 704.5966751812537 605.1932344424611L425.4034069406896 766.3852788600301C409.68379761006827 775.4593649183655 390.316263425088 775.4593649183655 374.59665409446666 766.3827385223879L95.40338585390253 605.1906941048188C79.68377652328115 596.1166080464833 70.00000943079107 579.3427585943028 70.00000943079107 561.1920461399895V238.80795730485158C70.00000943079107 220.6572448505383 79.68377652328115 203.88339539835783 95.40338585390253 194.80676900238012L374.59665409446666 33.61472458481103Z " transform="rotate(363, 400, 400)" opacity="0.88"></path><path d="M375.75135302279 50.26859172348969C390.7564346565648 41.60696412235137 409.24362637859144 41.60696412235137 424.24870801236625 50.27101659123923L690.7513731510866 204.13614989891875C705.7564547848616 212.79777750005712 715.0000506458748 228.8091792498658 715.0000506458748 246.13485931989203V553.8651259352512C715.0000506458748 571.1908060052774 705.7564547848616 587.2022077550861 690.7513731510866 595.8662602239739L424.24870801236625 749.7313935316533C409.24362637859144 758.3930211327918 390.7564346565648 758.3930211327918 375.75135302279 749.728968663904L109.24868788406957 595.8638353562244C94.2436062502947 587.2022077550861 85.00001038928139 571.1908060052774 85.00001038928139 553.8651259352512V246.13485931989203C85.00001038928139 228.8091792498658 94.2436062502947 212.79777750005712 109.24868788406957 204.13372503116932L375.75135302279 50.26859172348969Z " transform="rotate(346.5, 400, 400)" opacity="0.84"></path><path d="M376.9060519511131 66.92245886216841C391.19660588804163 58.673289718227124 408.8034551471146 58.673289718227124 423.09400908404314 66.92476826002508L676.9060711209196 213.46299045781512C691.196625057848 221.7121596017564 700.0000496873845 236.96111364919324 700.0000496873845 253.46176133493253V546.5382057305126C700.0000496873845 563.038853416252 691.196625057848 578.2878074636888 676.9060711209196 586.5392860054867L423.09400908404314 733.0775082032768C408.8034551471146 741.3266773472179 391.19660588804163 741.3266773472179 376.9060519511131 733.0751988054202L123.09398991423666 586.5369766076301C108.8034359773082 578.2878074636888 100.0000113477717 563.038853416252 100.0000113477717 546.5382057305126V253.46176133493253C100.0000113477717 236.96111364919324 108.8034359773082 221.7121596017564 123.09398991423666 213.46068105995857L376.9060519511131 66.92245886216841Z " transform="rotate(330, 400, 400)" opacity="0.80"></path><path d="M378.06075087943645 83.5763565184252C391.63677711951846 75.739645831681 408.3632839156378 75.739645831681 421.9393101557198 83.57855044638904L663.0607690907525 222.78986153428957C676.6367953308346 230.62657222103383 685.0000487288942 245.1130785660988 685.0000487288942 260.78869386755116V539.2113160433521C685.0000487288942 554.8869313448046 676.6367953308346 569.3734376898694 663.0607690907525 577.2123423045775L421.9393101557198 716.4236533924781C408.3632839156378 724.2603640792222 391.63677711951846 724.2603640792222 378.06075087943645 716.4214594645142L136.93929194440375 577.2101483766138C123.36326570432169 569.3734376898694 115.00001230626202 554.8869313448046 115.00001230626202 539.2113160433521V260.78869386755116C115.00001230626202 245.1130785660988 123.36326570432169 230.62657222103383 136.93929194440375 222.78766760632584L378.06075087943645 83.5763565184252Z " transform="rotate(313.5, 400, 400)" opacity="0.76"></path><path d="M379.2154498077597 100.23022365710392C392.0769483509953 92.80597142755676 407.92311268416097 92.80597142755676 420.78461122739657 100.23230211517489L649.2154670605854 232.11670209318595C662.0769656038211 239.5409543227331 670.000047770404 253.26501296542625 670.000047770404 268.1155958825916V531.8843958386137C670.000047770404 546.7349787557791 662.0769656038211 560.4590373984722 649.2154670605854 567.8853680860902L420.78461122739657 699.7697680641013C407.92311268416097 707.1940202936485 392.0769483509953 707.1940202936485 379.2154498077597 699.7676896060304L150.78459397457084 567.8832896280194C137.92309543133518 560.4590373984722 130.00001326475234 546.7349787557791 130.00001326475234 531.8843958386137V268.1155958825916C130.00001326475234 253.26501296542625 137.92309543133518 239.5409543227331 150.78459397457084 232.11462363511498L379.2154498077597 100.23022365710392Z " transform="rotate(297, 400, 400)" opacity="0.72"></path><path d="M380.37013347729385 116.88409079578258C392.51710432368304 109.87229702343251 407.4829261938951 109.87229702343251 419.6298970402843 116.88605378396073L635.3701497716293 241.44354265208233C647.5171206180186 248.4553364244324 655.0000315531245 261.4169473647537 655.0000315531245 275.44249789763217V524.5574756338752C655.0000315531245 538.5830261667536 647.5171206180186 551.544637107075 635.3701497716293 558.5583938676032L419.6298970402843 683.1158827357247C407.4829261938951 690.1276765080747 392.51710432368304 690.1276765080747 380.37013347729385 683.1139197475466L164.6298807459488 558.556430879425C152.48290989955962 551.544637107075 144.9999989644536 538.5830261667536 144.9999989644536 524.5574756338752V275.44249789763217C144.9999989644536 261.4169473647537 152.48290989955962 248.4553364244324 164.6298807459488 241.44157966390418L380.37013347729385 116.88409079578258Z " transform="rotate(280.5, 400, 400)" opacity="0.68"></path><path d="M381.5248324056171 133.53798845203943C392.95727555515987 126.93865313688639 407.04275496241826 126.93865313688639 418.47519811196105 133.53983597032476L621.5248477414623 250.77041372855678C632.957290891005 257.3697490437098 640.0000305946342 269.56891228165927 640.0000305946342 282.76943043025074V517.2305859467148C640.0000305946342 530.4311040953062 632.957290891005 542.6302673332557 621.5248477414623 549.231450166694L418.47519811196105 666.462027924926C407.04275496241826 673.061363240079 392.95727555515987 673.061363240079 381.5248324056171 666.4601804066408L178.4751827761159 549.2296026484087C167.0427396265731 542.6302673332557 159.9999999229439 530.4311040953062 159.9999999229439 517.2305859467148V282.76943043025074C159.9999999229439 269.56891228165927 167.0427396265731 257.3697490437098 178.4751827761159 250.7685662102715L381.5248324056171 133.53798845203943Z " transform="rotate(264, 400, 400)" opacity="0.64"></path><path d="M382.67951607515124 150.1918555907181C393.39743152784763 144.00497873276214 406.60256847215237 144.00497873276214 417.32048392484876 150.1935876391106L607.6795304525061 260.0972542874531C618.3974459052024 266.2841311454091 625.0000143773548 277.7208466809867 625.0000143773548 290.0963324452912V509.9036657419763C625.0000143773548 522.2791515062808 618.3974459052024 533.7158670418584 607.6795304525061 539.9044759482067L417.32048392484876 649.8081425965493C406.60256847215237 655.9950194545054 393.39743152784763 655.9950194545054 382.67951607515124 649.8064105481569L192.32046954749393 539.9027438998144C181.60255409479754 533.7158670418584 174.99998562264517 522.2791515062808 174.99998562264517 509.9036657419763V290.0963324452912C174.99998562264517 277.7208466809867 181.60255409479754 266.2841311454091 192.32046954749393 260.0955222390607L382.67951607515124 150.1918555907181Z " transform="rotate(247.5, 400, 400)" opacity="0.60"></path><path d="M383.8342150034745 166.8457227293968C393.83760275932445 161.0713043286379 406.16239724067555 161.0713043286379 416.1657849965255 166.84733930789645L593.834228422339 269.4240948463495C603.8376161781889 275.1985132471084 610.0000134188645 285.87278108031416 610.0000134188645 297.4232344603316V502.5767455372377C610.0000134188645 514.1271989172553 603.8376161781889 524.801466750461 593.834228422339 530.5775017297195L416.1657849965255 633.1542572681726C406.16239724067555 638.9286756689314 393.83760275932445 638.9286756689314 383.8342150034745 633.1526406896729L206.16577157766096 530.57588515122C196.16238382181103 524.801466750461 189.9999865811355 514.1271989172553 189.9999865811355 502.5767455372377V297.4232344603316C189.9999865811355 285.87278108031416 196.16238382181103 275.1985132471084 206.16577157766096 269.4224782678499L383.8342150034745 166.8457227293968Z " transform="rotate(231, 400, 400)" opacity="0.56"></path><path d="M384.9889139317978 183.49960512686454C394.2777739908013 178.1376451833027 405.7222260091987 178.1376451833027 415.0110860682022 183.50110623547135L579.988926392172 278.7509506640349C589.2777864511754 284.11291060759675 595.0000124603741 294.02473073843066 595.0000124603741 304.75015173416125V495.2498405912884C595.0000124603741 505.97526158701885 589.2777864511754 515.8870817178528 579.988926392172 521.2505427700214L415.0110860682022 616.5003871985849C405.7222260091987 621.8623471421467 394.2777739908013 621.8623471421467 384.9889139317978 616.4988860899782L220.01107360782805 521.2490416614146C210.72221354882453 515.8870817178528 204.9999875396258 505.97526158701885 204.9999875396258 495.2498405912884V304.75015173416125C204.9999875396258 294.02473073843066 210.72221354882453 284.11291060759675 220.01107360782805 278.7494495554281L384.9889139317978 183.49960512686454Z " transform="rotate(214.5, 400, 400)" opacity="0.53"></path><path d="M386.14361286012104 200.15348752433232C394.7179452222781 195.20398603796752 405.2820547777219 195.20398603796752 413.85638713987896 200.15487316304626L566.1436243620049 288.0778064817203C574.7179567241619 293.0273079680851 580.0000115018838 302.17668039654717 580.0000115018838 312.07706900799076V487.92293564533884C580.0000115018838 497.82332425678237 574.7179567241619 506.9726966852445 566.1436243620049 511.9235838103232L413.85638713987896 599.8465171289972C405.2820547777219 604.7960186153621 394.7179452222781 604.7960186153621 386.14361286012104 599.8451314902834L233.85637563799514 511.92219817160935C225.28204327583802 506.9726966852445 219.99998849811612 497.82332425678237 219.99998849811612 487.92293564533884V312.07706900799076C219.99998849811612 302.17668039654717 225.28204327583802 293.0273079680851 233.85637563799514 288.07642084300636L386.14361286012104 200.15348752433232Z " transform="rotate(198, 400, 400)" opacity="0.49"></path><path d="M387.29831178844427 216.80735466301098C395.15811645375493 212.27031163384328 404.84188354624507 212.27031163384328 412.70168821155573 216.80862483183216L552.2983223318378 297.4046470406167C560.1581269971484 301.9416900697844 565.0000105433935 310.3286147958746 565.0000105433935 319.40397102303126V480.59601544060024C565.0000105433935 489.67137166775683 560.1581269971484 498.05829639384706 552.2983223318378 502.596609591836L412.70168821155573 583.1926318006206C404.84188354624507 587.7296748297882 395.15811645375493 587.7296748297882 387.29831178844427 583.1913616317994L247.70167766816218 502.5953394230148C239.84187300285151 498.05829639384706 234.99998945660644 489.67137166775683 234.99998945660644 480.59601544060024V319.40397102303126C234.99998945660644 310.3286147958746 239.84187300285151 301.9416900697844 247.70167766816218 297.40337687179556L387.29831178844427 216.80735466301098Z " transform="rotate(181.5, 400, 400)" opacity="0.45"></path><path d="M388.4530107167675 233.46125231926777C395.59828768523175 229.33666774729716 404.40171231476825 229.33666774729716 411.5469892832325 233.46240701819613L538.4530203016707 306.7315181170911C545.5982972701349 310.8561026890618 550.0000095849032 318.48057971278024 550.0000095849032 326.7309035556499V473.2691257534399C550.0000095849032 481.5194495963096 545.5982972701349 489.14392662002797 538.4530203016707 493.26966589092694L411.5469892832325 566.538776989822C404.40171231476825 570.6633615617925 395.59828768523175 570.6633615617925 388.4530107167675 566.5376222908938L261.54697969832927 493.26851119199864C254.401702729865 489.14392662002797 249.99999041509682 481.5194495963096 249.99999041509682 473.2691257534399V326.7309035556499C249.99999041509682 318.48057971278024 254.401702729865 310.8561026890618 261.54697969832927 306.7303634181629L388.4530107167675 233.46125231926777Z " transform="rotate(165, 400, 400)" opacity="0.41"></path><path d="M389.6077096450908 250.11510419915743C396.0384589167086 246.40297808438385 403.9615410832914 246.40297808438385 410.3922903549092 250.1161434281929L524.6077182715037 316.05834341719844C531.0384675431214 319.770469531972 535.0000086264129 326.63249885331857 535.0000086264129 334.0577903119013V465.94219028991233C535.0000086264129 473.36748174849504 531.0384675431214 480.2295110698416 524.6077182715037 483.9426764136506L410.3922903549092 549.8848764026561C403.9615410832914 553.5970025174297 396.0384589167086 553.5970025174297 389.6077096450908 549.8838371736207L275.39228172849636 483.94163718461516C268.9615324568785 480.2295110698416 264.99999137358714 473.36748174849504 264.99999137358714 465.94219028991233V334.0577903119013C264.99999137358714 326.63249885331857 268.9615324568785 319.770469531972 275.39228172849636 316.05730418816296L389.6077096450908 250.11510419915743Z " transform="rotate(148.5, 400, 400)" opacity="0.37"></path><path d="M390.762408573414 266.76898659662515C396.4786301481854 263.46931893904866 403.5213698518146 263.46931893904866 409.237591426586 266.7699103557678L510.7624162413366 325.3851992348839C516.478637816108 328.6848668924604 520.0000076679225 334.78444851143513 520.0000076679225 341.38470758573084V458.61528534396285C520.0000076679225 465.21554441825856 516.478637816108 471.3151260372333 510.7624162413366 474.61571745395247L409.237591426586 533.2310063330685C403.5213698518146 536.530673990645 396.4786301481854 536.530673990645 390.762408573414 533.2300825739259L289.2375837586634 474.6147936948098C283.521362183892 471.3151260372333 279.99999233207745 465.21554441825856 279.99999233207745 458.61528534396285V341.38470758573084C279.99999233207745 334.78444851143513 283.521362183892 328.6848668924604 289.2375837586634 325.3842754757412L390.762408573414 266.76898659662515Z " transform="rotate(132, 400, 400)" opacity="0.33"></path><path d="M391.9171075017373 283.4228613646984C396.9188013796622 280.53565216431895 403.0811986203378 280.53565216431895 408.0828924982627 283.4236696539482L496.9171142111695 334.71204742317474C501.91880808909445 337.5992566235542 505.0000067094322 342.93639054015705 505.0000067094322 348.7116172301658V451.28837276861884C505.0000067094322 457.06359945862766 501.91880808909445 462.4007333752305 496.9171142111695 465.28875086485976L408.0828924982627 516.5771286340863C403.0811986203378 519.4643378344657 396.9188013796622 519.4643378344657 391.9171075017373 516.5763203448364L303.0828857888305 465.28794257561C298.08119191090555 462.4007333752305 294.9999932905678 457.06359945862766 294.9999932905678 451.28837276861884V348.7116172301658C294.9999932905678 342.93639054015705 298.08119191090555 337.5992566235542 303.0828857888305 334.71123913392495L391.9171075017373 283.4228613646984Z " transform="rotate(115.5, 400, 400)" opacity="0.29"></path><path d="M393.0718064300605 300.0767437621662C397.35897261113905 297.60199301898376 402.64102738886095 297.60199301898376 406.9281935699395 300.0774365815231L483.07181218100243 344.0389032408602C487.35897836208096 346.51365398404255 490.0000057509419 351.0883401982736 490.0000057509419 356.0385345039954V443.9614678226694C490.0000057509419 448.9116621283912 487.35897836208096 453.48634834262225 483.07181218100243 455.9617919051616L406.9281935699395 499.9232585644986C402.64102738886095 502.39800930768104 397.35897261113905 502.39800930768104 393.0718064300605 499.9225657451417L316.92818781899757 455.9610990858047C312.64102163791904 453.48634834262225 309.9999942490581 448.9116621283912 309.9999942490581 443.9614678226694V356.0385345039954C309.9999942490581 351.0883401982736 312.64102163791904 346.51365398404255 316.92818781899757 344.0382104215032L393.0718064300605 300.0767437621662Z " transform="rotate(99, 400, 400)" opacity="0.25"></path><path d="M394.22650535838375 316.7306337890284C397.7991438426159 314.6683415030431 402.2008561573841 314.6683415030431 405.77349464161625 316.7312111384926L469.22651015083534 353.3657666879401C472.79914863506747 355.42805897392543 475.0000047924516 359.24029748578465 475.0000047924516 363.3654594072195V436.63457050611447C475.0000047924516 440.75973242754935 472.79914863506747 444.5719709394085 469.22651015083534 446.634840574858L405.77349464161625 483.26939612430556C402.2008561573841 485.3316884102908 397.7991438426159 485.3316884102908 394.22650535838375 483.2688187748414L330.77348984916466 446.63426322539385C327.20085136493253 444.5719709394085 324.9999952075484 440.75973242754935 324.9999952075484 436.63457050611447V363.3654594072195C324.9999952075484 359.24029748578465 327.20085136493253 355.42805897392543 330.77348984916466 353.36518933847594L394.22650535838375 316.7306337890284Z " transform="rotate(82.5, 400, 400)" opacity="0.21"></path><path d="M395.38120428670703 333.3844932983126C398.2393150740927 331.73465946952433 401.7606849259073 331.73465946952433 404.618795713293 333.3849551778839L455.3812081206683 362.69259961744194C458.239318908054 364.3424334462302 460.0000038339613 367.39222425571757 460.0000038339613 370.6923537928654V429.3076426719814C460.0000038339613 432.6077722091293 458.239318908054 435.65756301861666 455.3812081206683 437.30785872697624L404.618795713293 466.61550316653427C401.7606849259073 468.2653369953225 398.2393150740927 468.2653369953225 395.38120428670703 466.61504128696293L344.6187918793317 437.3073968474049C341.760681091946 435.65756301861666 339.9999961660387 432.6077722091293 339.9999961660387 429.3076426719814V370.6923537928654C339.9999961660387 367.39222425571757 341.760681091946 364.3424334462302 344.6187918793317 362.6921377378706L395.38120428670703 333.3844932983126Z " transform="rotate(66, 400, 400)" opacity="0.17"></path><path d="M396.53590321503026 350.03837569578036C398.6794863055695 348.80100032418915 401.3205136944305 348.80100032418915 403.46409678496974 350.0387221054589L441.5359060905012 372.0194554351273C443.6794891810405 373.25683080671854 445.00000287547095 375.5441739138341 445.00000287547095 378.01927106669496V421.980737726032C445.00000287547095 424.45583487889286 443.6794891810405 426.7431779860084 441.5359060905012 427.98089976727806L403.46409678496974 449.96163309694657C401.3205136944305 451.1990084685378 398.6794863055695 451.1990084685378 396.53590321503026 449.9612866872681L358.4640939094988 427.9805533575996C356.3205108189595 426.7431779860084 354.99999712452905 424.45583487889286 354.99999712452905 421.980737726032V378.01927106669496C354.99999712452905 375.5441739138341 356.3205108189595 373.25683080671854 358.4640939094988 372.01910902544887L396.53590321503026 350.03837569578036Z " transform="rotate(49.5, 400, 400)" opacity="0.13"></path><path d="M397.6906021433535 366.692242834459C399.11965753704635 365.8673259200649 400.88034246295365 365.8673259200649 402.3093978566465 366.6924737742447L427.6906040603341 381.3462959940237C429.119659454027 382.17121290841783 430.00000191698064 383.6961083131615 430.00000191698064 385.34617308173546V414.65381752129343C430.00000191698064 416.3038822898674 429.119659454027 417.82877769461106 427.6906040603341 418.6539255487909L402.3093978566465 433.30774776856987C400.88034246295365 434.132664682964 399.11965753704635 434.132664682964 397.6906021433535 433.3075168287842L372.3093959396659 418.6536946090052C370.880340545973 417.82877769461106 369.99999808301936 416.3038822898674 369.99999808301936 414.65381752129343V385.34617308173546C369.99999808301936 383.6961083131615 370.880340545973 382.17121290841783 372.3093959396659 381.346065054238L397.6906021433535 366.692242834459Z " transform="rotate(33, 400, 400)" opacity="0.09"></path><path d="M398.8453010716768 383.34612523192675C399.5598287685232 382.9336667747297 400.4401712314768 382.9336667747297 401.1546989283232 383.3462407018196L413.8453020301671 390.6731518117091C414.5598297270135 391.0856102689062 415.0000009584903 391.848057971278 415.0000009584903 392.67309035556497V407.326912575344C415.0000009584903 408.15194495963095 414.5598297270135 408.9143926620028 413.8453020301671 409.3269665890927L401.1546989283232 416.65387769898217C400.4401712314768 417.06633615617926 399.5598287685232 417.06633615617926 398.8453010716768 416.65376222908935L386.1546979698329 409.3268511191999C385.4401702729865 408.9143926620028 384.9999990415097 408.15194495963095 384.9999990415097 407.326912575344V392.67309035556497C384.9999990415097 391.848057971278 385.4401702729865 391.0856102689062 386.1546979698329 390.67303634181627L398.8453010716768 383.34612523192675Z " transform="rotate(16.5, 400, 400)" opacity="0.05"></path></g></svg>